<svg xmlns="http://www.w3.org/2000/svg" viewBox="0 0 1600 1000">
<defs>
 <linearGradient id="room" x1="0" y1="0" x2="1" y2="1"><stop stop-color="#071f1a"/><stop offset=".52" stop-color="#17483b"/><stop offset="1" stop-color="#8a4828"/></linearGradient>
 <radialGradient id="plate"><stop stop-color="#f8eee0"/><stop offset="1" stop-color="#cfc1ae"/></radialGradient>
 <filter id="soft"><feGaussianBlur stdDeviation="22"/></filter>
</defs>
<rect width="1600" height="1000" fill="url(#room)"/>
<g opacity=".38" filter="url(#soft)" fill="#e8a15b"><circle cx="240" cy="210" r="80"/><circle cx="420" cy="140" r="55"/><circle cx="1190" cy="170" r="90"/><circle cx="1410" cy="300" r="65"/></g>
<g fill="#102c24"><rect x="70" y="0" width="45" height="720"/><rect x="1450" y="0" width="35" height="720"/></g>
<g fill="#e0a05b"><circle cx="190" cy="250" r="18"/><circle cx="390" cy="210" r="14"/><circle cx="1250" cy="240" r="20"/><circle cx="1400" cy="170" r="13"/></g>
<ellipse cx="810" cy="735" rx="520" ry="175" fill="#d8c7ae" opacity=".9"/>
<ellipse cx="810" cy="705" rx="400" ry="130" fill="url(#plate)"/>
<ellipse cx="810" cy="690" rx="220" ry="88" fill="#47251a"/>
<path d="M650 690 C690 600 760 590 800 640 C835 590 930 620 960 690 C910 735 700 750 650 690Z" fill="#8d3f24"/>
<g fill="#d9873b"><ellipse cx="620" cy="675" rx="48" ry="28" transform="rotate(-20 620 675)"/><ellipse cx="1020" cy="680" rx="45" ry="25" transform="rotate(20 1020 680)"/><ellipse cx="730" cy="790" rx="38" ry="20"/><ellipse cx="900" cy="785" rx="45" ry="22"/></g>
<g fill="#6b8b46"><path d="M735 620 q-30 -70 15 -95 q30 65 -15 95Z"/><path d="M870 625 q25 -80 70 -88 q-5 70 -70 88Z"/></g>
<circle cx="1150" cy="700" r="80" fill="#6f2f25"/><rect x="1080" y="730" width="145" height="110" rx="18" fill="#4a211d"/>
<rect width="1600" height="1000" fill="#000" opacity=".16"/>
</svg>
